<svg viewBox="0 0 60 35.453" xml:space="preserve" xmlns="http://www.w3.org/2000/svg" class="default_cursor_cs"><path d="M11.99 16.308s-1.804-1.857-3.911-.171c-2.106 1.69-5.865 4.725-5.865 4.725s-5.712 5.734 5.266 1.688c0 0-6.165 8.088 4.96 2.189 0 0 1.715 7.444 9.987 1.506-2.079-2.694-10.436-9.937-10.436-9.937z" fill="#262626" class="fill-c0dfcf default_cursor_cs"></path><path d="M16.839 29.275h-.001c-2.686 0-4.188-1.958-4.824-3.49-2.431 1.237-4.149 1.84-5.236 1.84-.959 0-1.383-.451-1.57-.83-.383-.77-.017-1.876.504-2.86-1.676.531-2.932.792-3.813.792-1.174 0-1.626-.494-1.798-.909-.495-1.192.95-2.825 1.595-3.472a.997.997 0 0 1 .059-.054s3.76-3.036 5.866-4.726c.72-.577 1.493-.869 2.297-.869 1.51 0 2.553 1.055 2.597 1.1.298.255 8.392 7.28 10.491 10a.733.733 0 0 1-.152 1.042c-2.252 1.617-4.276 2.436-6.015 2.436zm-4.4-5.268a.733.733 0 0 1 .713.567c.031.13.802 3.237 3.686 3.237 1.271 0 2.787-.576 4.514-1.714-2.605-2.957-9.763-9.17-9.841-9.237-.048-.046-.712-.699-1.593-.699-.463 0-.928.184-1.382.547-1.99 1.597-5.461 4.4-5.83 4.697-.626.638-1.19 1.466-1.242 1.81.268.083 1.567.195 5.762-1.352a.732.732 0 0 1 .836 1.13c-.95 1.25-1.7 2.782-1.543 3.154-.004-.016.08.014.259.014.646 0 2.094-.359 5.319-2.069a.732.732 0 0 1 .343-.085z" fill="#9e9e9e" class="fill-43525b default_cursor_cs"></path><path d="M48.011 16.308s1.801-1.857 3.908-.171c2.106 1.69 5.866 4.725 5.866 4.725s5.714 5.734-5.264 1.688c0 0 6.164 8.088-4.963 2.189 0 0-1.711 7.444-9.985 1.506 2.08-2.694 10.438-9.937 10.438-9.937z" fill="#262626" class="fill-c0dfcf"></path><path d="M43.162 29.275c-1.74 0-3.764-.82-6.016-2.436a.735.735 0 0 1-.298-.488.735.735 0 0 1 .146-.553c2.102-2.72 10.194-9.746 10.538-10.044-.003-.001 1.04-1.057 2.549-1.057.804 0 1.576.292 2.296.868 2.106 1.691 5.868 4.727 5.868 4.727a.74.74 0 0 1 .059.054c.644.647 2.09 2.28 1.594 3.472-.172.415-.623.908-1.797.909-.88 0-2.136-.26-3.812-.792.52.984.886 2.089.504 2.86-.188.379-.612.83-1.57.83h-.001c-1.088 0-2.806-.603-5.238-1.84-.635 1.532-2.136 3.49-4.822 3.49zm-4.514-3.178c1.727 1.138 3.243 1.714 4.514 1.714 2.905 0 3.677-3.204 3.684-3.236a.735.735 0 0 1 1.056-.483c3.225 1.71 4.673 2.07 5.32 2.07.178 0 .264-.031.282-.043.135-.346-.615-1.878-1.565-3.126a.73.73 0 0 1-.006-.878.73.73 0 0 1 .841-.252c3.14 1.157 4.63 1.4 5.327 1.4.235 0 .368-.027.435-.048-.053-.344-.616-1.172-1.243-1.81-.37-.297-3.84-3.1-5.832-4.698-.453-.362-.917-.546-1.38-.546-.88 0-1.541.653-1.548.66-.117.104-7.28 6.32-9.885 9.276z" fill="#9e9e9e" class="fill-43525b"></path><path d="M30 10.691c0-5.5 4.459-9.96 9.962-9.96 5.5 0 9.96 4.46 9.96 9.96 0 2.883-1.245 5.456-3.2 7.276l.025.008L30 34.722 13.248 17.975c.01-.008.013-.008.02-.013-1.954-1.82-3.188-4.388-3.188-7.27a9.958 9.958 0 0 1 9.962-9.96C25.538.731 30 5.19 30 10.691z" fill="#383838" class="fill-ffa8a6 default_cursor_cs"></path><path d="M30 35.453a.729.729 0 0 1-.518-.214L12.731 18.492a.71.71 0 0 1-.101-.126c-2.118-2.041-3.282-4.76-3.282-7.675C9.348 4.796 14.145 0 20.042 0c4.523 0 8.4 2.825 9.958 6.803C31.558 2.825 35.436 0 39.962 0c5.895 0 10.692 4.796 10.692 10.691 0 2.913-1.168 5.632-3.292 7.679a.648.648 0 0 1-.098.122L30.517 35.24a.729.729 0 0 1-.517.214zM13.896 17.588 30 33.687l16.098-16.099a.685.685 0 0 1 .125-.156c1.913-1.782 2.967-4.175 2.967-6.74 0-5.088-4.14-9.229-9.228-9.229-5.09 0-9.23 4.14-9.23 9.228a.732.732 0 1 1-1.464 0c0-5.087-4.139-9.228-9.226-9.228-5.09 0-9.23 4.14-9.23 9.228 0 2.568 1.05 4.96 2.954 6.736.051.048.095.102.13.16z" fill="#9e9e9e" class="fill-43525b default_cursor_cs"></path><path d="M15.563 13.562a.813.813 0 0 1-.813-.813c0-3.332 2.9-7.205 6.64-7.205a.813.813 0 0 1 0 1.626c-2.7 0-5.014 3.068-5.014 5.579 0 .45-.364.813-.813.813z" fill="#696969" class="fill-ffffff default_cursor_cs"></path></svg>