<?xml version="1.0" ?><!DOCTYPE svg  PUBLIC '-//W3C//DTD SVG 1.1//EN'  'http://www.w3.org/Graphics/SVG/1.1/DTD/svg11.dtd'><svg enable-background="new 0 0 59.9996 35.4531" id="heart-wings" version="1.1" viewBox="0 0 59.9996 35.4531" xml:space="preserve" xmlns="http://www.w3.org/2000/svg" xmlns:xlink="http://www.w3.org/1999/xlink"><g><g><path d="M11.9905,16.3076c0,0-1.8047-1.857-3.9116-0.1709c-2.1055,1.6894-5.8647,4.7256-5.8647,4.7256    s-5.7124,5.7338,5.2656,1.6875c0,0-6.1651,8.0883,4.9599,2.1889c0,0,1.7149,7.4444,9.9873,1.5064    C20.3484,23.5507,11.9905,16.3076,11.9905,16.3076z" fill="#C0DFCF"/><g><path d="M16.8387,29.2749c0,0-0.0005,0-0.001,0c-2.6856-0.0005-4.1875-1.958-4.8233-3.4903     c-2.4316,1.2373-4.1489,1.8399-5.2368,1.8399c-0.9585,0-1.3828-0.4507-1.5703-0.8286c-0.3818-0.7715-0.0161-1.8765,0.5044-2.8614     c-1.6753,0.5318-2.9321,0.7925-3.813,0.7925c-1.1738,0-1.6255-0.4941-1.7973-0.9087c-0.4952-1.1919,0.9502-2.8257,1.5942-3.4726     c0.019-0.0186,0.0386-0.0362,0.0591-0.0533c0,0,3.7602-3.0361,5.8662-4.7265c0.7207-0.5767,1.4932-0.8687,2.2974-0.8687     c1.5102,0,2.5532,1.0552,2.5971,1.1001c0.2979,0.2549,8.3916,7.2798,10.4907,10.0005c0.1216,0.1572,0.1734,0.3569,0.1451,0.5532     c-0.0288,0.1963-0.1363,0.3726-0.2974,0.4883C20.6023,28.4555,18.5784,29.2749,16.8387,29.2749L16.8387,29.2749z      M12.4397,24.0068c0.1036,0,0.2076,0.022,0.3038,0.0664c0.207,0.0947,0.3579,0.2798,0.4091,0.501     c0.0308,0.1303,0.8013,3.2368,3.6856,3.2373h0.0005c1.2705,0,2.7861-0.5762,4.5136-1.7149     c-2.6054-2.9565-9.7636-9.1689-9.8413-9.2363c-0.0483-0.0459-0.7119-0.6992-1.5927-0.6992c-0.4634,0-0.9283,0.1836-1.3819,0.5469     c-1.9902,1.5971-5.4614,4.3994-5.8305,4.6972c-0.626,0.6382-1.1905,1.4663-1.2422,1.8101     c0.268,0.083,1.5674,0.1943,5.7627-1.3521c0.3056-0.1132,0.6479-0.0097,0.8418,0.2515c0.1933,0.2617,0.1909,0.6196-0.0064,0.8784     c-0.9502,1.249-1.6997,2.7822-1.5425,3.1543c-0.0044-0.0166,0.0796,0.0132,0.2583,0.0137c0.6465,0,2.0948-0.3589,5.3194-2.0689     C12.2039,24.0356,12.3216,24.0068,12.4397,24.0068L12.4397,24.0068z" fill="#43525B"/></g></g><g><path d="M48.0115,16.3076c0,0,1.8008-1.857,3.9072-0.1709c2.1065,1.6894,5.8663,4.7256,5.8663,4.7256    s5.7138,5.7338-5.2637,1.6875c0,0,6.164,8.0883-4.9629,2.1889c0,0-1.7119,7.4444-9.9854,1.5064    C39.6531,23.5507,48.0115,16.3076,48.0115,16.3076z" fill="#C0DFCF"/><g><path d="M43.1619,29.2749c-1.7402,0-3.7637-0.8194-6.0156-2.4356c-0.1611-0.1157-0.2686-0.292-0.2979-0.4883     c-0.0283-0.1967,0.0244-0.396,0.1455-0.5532c2.1016-2.7207,10.1944-9.7456,10.5381-10.0434     c-0.0029-0.0015,1.0391-1.0572,2.5489-1.0572c0.8037,0,1.5761,0.292,2.2959,0.8682c2.1064,1.6909,5.8681,4.727,5.8681,4.727     c0.0205,0.0166,0.0401,0.0347,0.0586,0.0533c0.6445,0.6469,2.0899,2.2807,1.5947,3.4726     c-0.1718,0.4146-0.623,0.9082-1.7968,0.9087l0,0c-0.8809,0-2.1368-0.2607-3.8125-0.7925     c0.5205,0.9849,0.8857,2.0894,0.5039,2.8609c-0.1875,0.3784-0.6114,0.8291-1.5703,0.8291h-0.001     c-1.0879,0-2.8057-0.6026-5.2373-1.8399C47.3494,27.3173,45.8484,29.2749,43.1619,29.2749L43.1619,29.2749z M38.6482,26.0971     c1.7266,1.1382,3.2432,1.7144,4.5137,1.7144c2.9053,0,3.6768-3.2046,3.6836-3.2368c0.0518-0.2212,0.2022-0.4068,0.4092-0.5015     c0.208-0.0947,0.4463-0.0869,0.6474,0.019c3.2247,1.71,4.6729,2.0689,5.3194,2.0689l0,0c0.1787,0,0.2646-0.0303,0.2822-0.042     c0.1357-0.3457-0.6143-1.8779-1.5644-3.126c-0.1973-0.2583-0.2002-0.6162-0.0059-0.8779     c0.1924-0.2617,0.5361-0.3652,0.8408-0.252c3.1397,1.1573,4.6289,1.4004,5.3272,1.4004l0,0c0.2343,0,0.3672-0.0273,0.4345-0.0483     c-0.0527-0.3438-0.6162-1.1719-1.2431-1.8101c-0.3692-0.2973-3.8399-3.1001-5.8321-4.6977     c-0.4531-0.3628-0.917-0.5464-1.3798-0.5464c-0.879,0-1.5411,0.6528-1.5479,0.6597     C48.4158,16.9248,41.2537,23.1406,38.6482,26.0971L38.6482,26.0971z" fill="#43525B"/></g></g><path d="M29.9998,10.6914c0-5.501,4.459-9.96,9.9619-9.96c5.5,0,9.96,4.459,9.96,9.96   c0,2.8828-1.2451,5.456-3.1992,7.2758l0.0244,0.0079L29.9998,34.7216L13.2483,17.9751c0.0088-0.0079,0.0122-0.0079,0.0191-0.0127   c-1.9536-1.8208-3.1875-4.3882-3.1875-7.271c0-5.501,4.4555-9.96,9.9619-9.96C25.5379,0.7314,29.9998,5.1904,29.9998,10.6914z" fill="#FFA8A6"/><g><path d="M29.9998,35.4531c-0.1875,0-0.3745-0.0713-0.5176-0.2144L12.7308,18.4921    c-0.0386-0.038-0.0723-0.0805-0.1011-0.1259c-2.1177-2.0415-3.2818-4.7598-3.2818-7.6748C9.3479,4.7963,14.1453,0,20.0418,0    c4.5234,0,8.3999,2.8247,9.958,6.8027C31.5584,2.8247,35.4363,0,39.9617,0c5.8955,0,10.6924,4.7963,10.6924,10.6914    c0,2.9126-1.168,5.6318-3.292,7.6782c-0.0273,0.0439-0.0596,0.0854-0.0977,0.1225l-16.747,16.7466    C30.3743,35.3818,30.1873,35.4531,29.9998,35.4531L29.9998,35.4531z M13.8963,17.5878l16.1035,16.0987l16.0986-16.0982    c0.0332-0.0571,0.0752-0.1103,0.125-0.1567c1.9131-1.7813,2.9668-4.1748,2.9668-6.7402c0-5.0879-4.1396-9.2281-9.2285-9.2281    c-5.0898,0-9.23,4.1402-9.23,9.2281c0,0.4043-0.3276,0.7319-0.7319,0.7319c-0.4038,0-0.7319-0.3276-0.7319-0.7319    c0-5.0879-4.1387-9.2281-9.2261-9.2281c-5.0894,0-9.2305,4.1402-9.2305,9.2281c0,2.5673,1.0498,4.9594,2.9551,6.7358    C13.8172,17.4746,13.8611,17.5293,13.8963,17.5878L13.8963,17.5878z" fill="#43525B"/></g><g><path d="M15.5628,13.562c-0.4492,0-0.813-0.3638-0.813-0.813c0-3.3321,2.9009-7.2051,6.6411-7.2051    c0.4492,0,0.813,0.3643,0.813,0.8135c0,0.4492-0.3638,0.813-0.813,0.813c-2.7012,0-5.0151,3.0673-5.0151,5.5786    C16.3758,13.1982,16.012,13.562,15.5628,13.562L15.5628,13.562z" fill="#FFFFFF"/></g></g></svg>